<?xml version="1.0" encoding="utf-8"?>
<!-- Generator: Adobe Illustrator 27.5.0, SVG Export Plug-In . SVG Version: 6.00 Build 0)  -->
<svg version="1.1" xmlns="http://www.w3.org/2000/svg" xmlns:xlink="http://www.w3.org/1999/xlink" x="0px" y="0px"
	 viewBox="0 0 500 500" style="enable-background:new 0 0 500 500;" xml:space="preserve">
<g id="BACKGROUND">
	<rect style="fill:#F6F6F6;" width="500" height="500"/>
</g>
<g id="OBJECTS">
	<g>
		<path style="fill:#FFFFFF;" d="M362.127,396.532H137.873c-15.94,0-28.861-12.922-28.861-28.861V132.329
			c0-15.94,12.922-28.861,28.861-28.861h224.253c15.94,0,28.861,12.922,28.861,28.861v235.342
			C390.988,383.611,378.066,396.532,362.127,396.532z"/>
		<path style="fill:none;stroke:#AF1317;stroke-width:14;stroke-miterlimit:10;" d="M362.127,396.532H137.873
			c-15.94,0-28.861-12.922-28.861-28.861V132.329c0-15.94,12.922-28.861,28.861-28.861h224.253c15.94,0,28.861,12.922,28.861,28.861
			v235.342C390.988,383.611,378.066,396.532,362.127,396.532z"/>
		<path style="fill:#AF1317;" d="M362.127,396.532H137.873c-15.94,0-28.861-12.922-28.861-28.861v-81.717h281.976v81.717
			C390.988,383.611,378.066,396.532,362.127,396.532z"/>
		<text transform="matrix(1 0 0 1 146.658 368.1819)" style="fill:#FFFFFF; font-family:'Poppins-Black'; font-size:38.7566px;">NO PHOTO</text>
		<g>
			<text transform="matrix(1 0 0 1 199.2625 332.3918)" style="fill:#FFFFFF; font-family:'Poppins-Black'; font-size:27.6885px;">please</text>
		</g>
		<g>
			<path style="fill:none;stroke:#FFFFFF;stroke-width:10;stroke-miterlimit:10;" d="M187.531,137.992h-16.746
				c-1.639,0-2.969,1.329-2.969,2.969v6.436h22.683v-6.436C190.499,139.321,189.17,137.992,187.531,137.992z"/>
			<path style="fill:none;stroke:#FFFFFF;stroke-width:10;stroke-miterlimit:10;" d="M162.302,150.828
				c-2.121,0-3.84,1.719-3.84,3.84v91.239c0,8.374,6.788,15.161,15.161,15.161h27.246v-110.24H162.302z"/>
			<path style="fill:none;stroke:#FFFFFF;stroke-width:10;stroke-miterlimit:10;" d="M326.376,150.828H206.347v110.24h120.029
				c8.374,0,15.161-6.788,15.161-15.161v-79.917C341.538,157.616,334.75,150.828,326.376,150.828z"/>
			<polygon style="fill:none;stroke:#FFFFFF;stroke-width:10;stroke-miterlimit:10;" points="341.538,180.839 206.347,180.839 
				206.347,187.558 341.538,187.558 341.538,187.558 			"/>
			
				<ellipse transform="matrix(0.7071 -0.7071 0.7071 0.7071 -65.1252 254.67)" style="fill:none;stroke:#FFFFFF;stroke-width:10;stroke-miterlimit:10;" cx="274.851" cy="205.948" rx="47.544" ry="47.544"/>
			
				<ellipse transform="matrix(0.7071 -0.7071 0.7071 0.7071 -65.1252 254.67)" style="fill:none;stroke:#FFFFFF;stroke-width:10;stroke-miterlimit:10;" cx="274.851" cy="205.948" rx="42.865" ry="42.865"/>
			
				<ellipse transform="matrix(0.7071 -0.7071 0.7071 0.7071 -65.1252 254.67)" style="fill:none;stroke:#FFFFFF;stroke-width:10;stroke-miterlimit:10;" cx="274.851" cy="205.948" rx="47.544" ry="47.544"/>
			<circle style="fill:none;stroke:#FFFFFF;stroke-width:10;stroke-miterlimit:10;" cx="274.851" cy="205.948" r="33.686"/>
			<path style="fill:none;stroke:#FFFFFF;stroke-width:10;stroke-linecap:round;stroke-miterlimit:10;" d="M274.851,181.099
				c13.724,0,24.849,11.125,24.849,24.849"/>
			<path style="fill:none;stroke:#FFFFFF;stroke-width:10;stroke-miterlimit:10;" d="M328.736,169.4
				c0,1.807-1.465,3.271-3.271,3.271s-3.271-1.464-3.271-3.271s1.464-3.271,3.271-3.271S328.736,167.594,328.736,169.4z"/>
		</g>
		<g>
			<path d="M187.531,137.992h-16.746c-1.639,0-2.969,1.329-2.969,2.969v6.436h22.683v-6.436
				C190.499,139.321,189.17,137.992,187.531,137.992z"/>
			<path d="M162.302,150.828c-2.121,0-3.84,1.719-3.84,3.84v91.239c0,8.374,6.788,15.161,15.161,15.161h27.246v-110.24H162.302z"/>
			<path d="M326.376,150.828H206.347v110.24h120.029c8.374,0,15.161-6.788,15.161-15.161v-79.917
				C341.538,157.616,334.75,150.828,326.376,150.828z"/>
			<polygon style="fill:#FFFFFF;" points="341.538,180.839 206.347,180.839 206.347,187.558 341.538,187.558 341.538,187.558 			"/>
			<ellipse transform="matrix(0.7071 -0.7071 0.7071 0.7071 -65.1252 254.67)" cx="274.851" cy="205.948" rx="47.544" ry="47.544"/>
			
				<ellipse transform="matrix(0.7071 -0.7071 0.7071 0.7071 -65.1252 254.67)" style="fill:#FFFFFF;" cx="274.851" cy="205.948" rx="42.865" ry="42.865"/>
			
				<ellipse transform="matrix(0.7071 -0.7071 0.7071 0.7071 -65.1252 254.67)" style="fill:none;stroke:#FFFFFF;stroke-width:1.6935;stroke-miterlimit:10;" cx="274.851" cy="205.948" rx="47.544" ry="47.544"/>
			<circle cx="274.851" cy="205.948" r="33.686"/>
			<path style="fill:none;stroke:#FFFFFF;stroke-width:4.5389;stroke-linecap:round;stroke-miterlimit:10;" d="M274.851,181.099
				c13.724,0,24.849,11.125,24.849,24.849"/>
			<path style="fill:#FFFFFF;" d="M328.736,169.4c0,1.807-1.465,3.271-3.271,3.271s-3.271-1.464-3.271-3.271
				s1.464-3.271,3.271-3.271S328.736,167.594,328.736,169.4z"/>
		</g>
		
			<line style="fill:none;stroke:#AF1317;stroke-width:14;stroke-miterlimit:10;" x1="120.34" y1="109.24" x2="390.594" y2="289.849"/>
	</g>
</g>
</svg>
